<svg width="34" height="39" viewBox="0 0 34 39" fill="none" xmlns="http://www.w3.org/2000/svg">
<g filter="url(#filter0_d_5_137)">
<path fill-rule="evenodd" clip-rule="evenodd" d="M24.4077 1.45312L23.8749 2.83472L20.8948 2.7214L17.9146 2.6084V3.7538V4.8992L20.1433 5.03459C21.369 5.10937 22.4643 5.25893 22.5774 5.36698C22.6909 5.47503 22.5395 6.12136 22.2412 6.8026C21.9432 7.48417 21.7483 8.08866 21.808 8.14598C21.9694 8.30015 30.3521 7.04143 30.5739 6.82994C30.7419 6.66918 25.7473 0.547544 25.1696 0.206592C25.0437 0.132473 24.7009 0.693148 24.4077 1.45312ZM13.3122 1.95483C12.8086 2.48619 12.7414 3.68726 12.7414 12.1669C12.7414 18.3538 12.6186 21.7765 12.3965 21.7765C12.1878 21.7765 12.0516 20.3734 12.0516 18.2263C12.0516 14.1576 11.6591 13.2115 9.97059 13.2115C8.08684 13.2115 7.82541 14.1233 7.96371 20.2134C8.08373 25.5108 8.09994 25.608 9.22081 27.7821C10.4555 30.177 12.2206 31.8508 14.7845 33.0575C16.0867 33.6706 16.9352 33.8003 19.639 33.8C22.5778 33.7997 23.1213 33.7002 24.9123 32.8342C27.2482 31.7049 29.3992 29.6045 30.4428 27.4346C31.1116 26.0444 31.184 25.3253 31.1881 20.0602C31.193 13.6417 31.0385 13.1291 29.0947 13.1291C27.7855 13.1291 27.2265 14.0107 27.2265 16.0745C27.2265 17.0364 27.0713 17.8234 26.8816 17.8234C26.6812 17.8234 26.5367 16.7498 26.5367 15.2615C26.5367 12.2759 26.0104 11.235 24.5012 11.235C22.9189 11.235 22.3981 12.1181 22.3981 14.8023C22.3981 16.1575 22.2512 17.1646 22.0532 17.1646C21.8518 17.1646 21.7083 16.0593 21.7083 14.5074C21.7083 11.6194 21.3807 10.6858 20.2202 10.2671C19.4518 9.98975 18.3078 10.359 17.8336 11.0373C17.6942 11.2366 17.578 12.5484 17.5749 13.9527C17.5718 15.4318 17.4245 16.5057 17.2249 16.5057C17.0059 16.5057 16.88 14.0047 16.88 9.66132C16.88 3.99955 16.7872 2.6901 16.343 2.08462C15.6801 1.18036 14.1095 1.11316 13.3122 1.95483ZM9.19874 5.03394L6.86354 6.07392L5.87407 5.16834C5.32984 4.67058 4.80527 4.38629 4.70802 4.53717C4.33106 5.12255 2.69494 11.3018 2.87221 11.4712C3.03913 11.6309 5.01324 11.2284 9.07493 10.2065L10.4096 9.87083L9.50603 8.97019C9.0094 8.47474 8.60278 7.97863 8.60278 7.86762C8.60278 7.7566 9.30117 7.41104 10.1548 7.09974C11.624 6.56377 11.7067 6.46593 11.7067 5.26058C11.7067 4.56056 11.6681 3.98901 11.6205 3.99066C11.5729 3.9923 10.4834 4.46173 9.19874 5.03394Z" fill="white"/>
</g>
<defs>
<filter id="filter0_d_5_137" x="0.434039" y="0.200012" width="33.179" height="38.4496" filterUnits="userSpaceOnUse" color-interpolation-filters="sRGB">
<feFlood flood-opacity="0" result="BackgroundImageFix"/>
<feColorMatrix in="SourceAlpha" type="matrix" values="0 0 0 0 0 0 0 0 0 0 0 0 0 0 0 0 0 0 127 0" result="hardAlpha"/>
<feOffset dy="2.42479"/>
<feGaussianBlur stdDeviation="1.21239"/>
<feComposite in2="hardAlpha" operator="out"/>
<feColorMatrix type="matrix" values="0 0 0 0 0 0 0 0 0 0 0 0 0 0 0 0 0 0 0.25 0"/>
<feBlend mode="normal" in2="BackgroundImageFix" result="effect1_dropShadow_5_137"/>
<feBlend mode="normal" in="SourceGraphic" in2="effect1_dropShadow_5_137" result="shape"/>
</filter>
</defs>
</svg>
